<svg xmlns="http://www.w3.org/2000/svg" width="26" height="26" viewBox="0 0 26 26" fill="none">
    <g id="Favorite">
        <path id="Icon" d="M11.465 4.41568C11.9709 2.9604 14.029 2.9604 14.5349 4.41568L15.8161 8.10168C16.1136 8.95767 16.9125 9.53805 17.8185 9.55652L21.72 9.63602C23.2604 9.66742 23.8964 11.6248 22.6687 12.5556L19.559 14.9132C18.8369 15.4607 18.5317 16.3998 18.7941 17.2672L19.9242 21.0023C20.3703 22.477 18.7053 23.6867 17.4406 22.8067L14.2375 20.5778C13.4936 20.0601 12.5062 20.0601 11.7624 20.5778L8.55925 22.8067C7.29461 23.6867 5.62956 22.477 6.07571 21.0023L7.20573 17.2672C7.46815 16.3998 7.16302 15.4607 6.44087 14.9132L3.33121 12.5556C2.10347 11.6248 2.73946 9.66742 4.27984 9.63602L8.18136 9.55652C9.0874 9.53805 9.88623 8.95767 10.1838 8.10168L11.465 4.41568Z" fill="white" fill-opacity="0.8"/>
    </g>
</svg>